<?xml version="1.0" standalone="no"?>
<!DOCTYPE svg PUBLIC "-//W3C//DTD SVG 20010904//EN"
 "http://www.w3.org/TR/2001/REC-SVG-20010904/DTD/svg10.dtd">
<svg version="1.0" xmlns="http://www.w3.org/2000/svg"
 width="1160.000000pt" height="1160.000000pt" viewBox="0 0 1160.000000 1160.000000"
 preserveAspectRatio="xMidYMid meet">
<metadata>
Created by potrace 1.14, written by Peter Selinger 2001-2017
</metadata>
<g transform="translate(0.000000,1160.000000) scale(0.100000,-0.100000)"
fill="#000000" stroke="none">
<path d="M3937 11593 c-3 -5 -8 -30 -11 -57 -4 -27 -9 -53 -11 -56 -2 -4 -9
-33 -14 -66 -6 -32 -13 -70 -16 -84 -3 -14 -7 -36 -10 -50 -8 -44 -14 -74 -20
-100 -3 -14 -7 -38 -10 -55 -2 -16 -7 -41 -10 -55 -3 -14 -8 -38 -11 -54 -2
-16 -6 -32 -8 -35 -2 -3 -7 -26 -10 -51 -3 -25 -10 -60 -16 -79 -5 -18 -9 -36
-8 -40 1 -3 -2 -24 -7 -46 -5 -22 -10 -49 -11 -60 -1 -11 -3 -21 -4 -22 -2 -2
-3 -6 -4 -10 -4 -16 -18 -89 -23 -113 -2 -14 -10 -56 -18 -95 -8 -38 -16 -81
-19 -95 -20 -106 -34 -173 -36 -180 -1 -3 -2 -8 -1 -12 0 -4 -6 -38 -15 -75
-9 -37 -17 -79 -19 -93 -1 -14 -4 -25 -5 -25 -1 0 -3 -9 -4 -20 -9 -59 -18
-110 -22 -116 -2 -4 -6 -24 -10 -44 -7 -49 -18 -103 -39 -200 -1 -5 -6 -32
-10 -60 -5 -27 -10 -52 -10 -55 -1 -3 -5 -23 -10 -45 -4 -22 -10 -49 -12 -60
-2 -11 -5 -29 -7 -40 -2 -11 -8 -45 -15 -75 -13 -65 -16 -79 -37 -190 -9 -47
-18 -93 -20 -102 -7 -32 -11 -52 -18 -88 -3 -19 -8 -46 -11 -60 -3 -14 -15
-74 -26 -135 -12 -60 -23 -118 -25 -127 -2 -10 -6 -26 -8 -37 -2 -10 -7 -34
-10 -52 -6 -39 -13 -71 -22 -114 -4 -16 -8 -39 -10 -50 -1 -11 -9 -51 -17 -90
-9 -38 -18 -90 -22 -115 -4 -24 -8 -47 -10 -50 -2 -3 -6 -21 -9 -40 -6 -36 -8
-50 -26 -135 -13 -63 -17 -84 -24 -126 -3 -19 -8 -44 -11 -56 -3 -13 -7 -32
-9 -43 -3 -11 -8 -25 -12 -32 -5 -7 -3 -8 5 -3 10 6 11 3 3 -11 -5 -11 -12
-35 -15 -54 -7 -42 -16 -90 -22 -110 -2 -8 -7 -31 -10 -50 -3 -19 -12 -69 -20
-110 -19 -96 -15 -76 -70 -355 -26 -132 -49 -251 -51 -265 -2 -14 -7 -36 -11
-50 -9 -37 -12 -52 -18 -85 -7 -45 -14 -83 -30 -160 -23 -108 -26 -128 -29
-161 -2 -17 -6 -35 -9 -40 -5 -8 -19 -79 -34 -169 -7 -40 -11 -59 -13 -62 -2
-2 -4 -12 -5 -23 -1 -11 -3 -21 -5 -22 -2 -4 -10 -42 -24 -123 -2 -11 -7 -36
-11 -55 -4 -19 -8 -44 -10 -55 -2 -11 -6 -31 -9 -45 -3 -14 -10 -50 -16 -80
-11 -61 -17 -93 -25 -130 -12 -59 -19 -96 -21 -115 -1 -11 -3 -21 -4 -22 -4
-5 -18 -78 -26 -128 -2 -11 -5 -29 -8 -40 -5 -21 -52 -261 -60 -305 -2 -14 -7
-36 -10 -50 -3 -14 -8 -36 -10 -50 -3 -14 -14 -74 -26 -135 -12 -60 -24 -121
-26 -135 -3 -14 -7 -38 -11 -55 -10 -44 -10 -45 -22 -110 -11 -57 -13 -72 -27
-140 -4 -16 -8 -39 -9 -50 -2 -11 -4 -20 -5 -20 -2 0 -6 -18 -14 -65 -13 -78
-17 -97 -26 -140 -5 -25 -12 -57 -15 -72 -3 -16 -7 -40 -10 -55 -3 -16 -8 -39
-11 -53 -13 -55 -15 -66 -19 -95 -3 -16 -14 -76 -26 -135 -12 -58 -23 -114
-25 -125 -1 -11 -10 -56 -19 -100 -21 -103 -24 -120 -29 -150 -3 -14 -7 -33
-10 -43 -3 -9 -7 -34 -10 -54 -3 -21 -10 -57 -15 -80 -6 -24 -13 -59 -16 -78
-3 -19 -8 -42 -10 -50 -2 -8 -7 -31 -10 -50 -3 -19 -8 -43 -11 -53 -3 -10 -8
-32 -11 -50 -9 -60 -11 -72 -36 -197 -30 -147 -35 -173 -43 -220 -3 -19 -8
-44 -11 -55 -3 -11 -7 -29 -9 -40 -1 -11 -8 -45 -14 -75 -6 -30 -13 -71 -16
-90 -8 -45 -12 -65 -14 -65 -2 0 -16 -68 -25 -125 -2 -17 -15 -84 -22 -115 -2
-11 -6 -29 -8 -40 -2 -11 -6 -31 -9 -45 -3 -14 -11 -52 -17 -85 -11 -64 -16
-90 -19 -90 -1 0 -3 -9 -4 -20 -3 -21 -19 -116 -21 -125 -6 -22 -16 -71 -20
-100 -3 -19 -8 -42 -10 -50 -2 -8 -7 -31 -10 -50 -3 -19 -17 -89 -30 -155 -13
-66 -26 -131 -29 -145 -3 -14 -8 -38 -11 -55 -3 -16 -8 -43 -12 -60 -4 -16 -8
-38 -9 -47 -1 -10 -2 -19 -4 -20 -3 -5 -17 -79 -26 -143 -1 -11 -3 -20 -4 -20
-2 0 -4 -9 -6 -20 -3 -23 -16 -88 -29 -155 -19 -89 -27 -129 -31 -163 l-6 -37
495 0 c548 0 499 -6 511 62 11 63 37 196 46 233 6 22 12 56 15 75 2 19 4 35 5
35 2 0 6 20 13 60 3 17 8 41 11 55 3 14 8 36 10 50 3 14 14 75 26 135 12 61
24 119 26 130 2 11 8 43 14 70 6 28 13 64 16 80 3 17 14 69 23 116 10 47 17
93 15 102 -1 9 3 17 9 17 5 0 8 2 5 5 -3 4 -1 25 4 48 13 55 15 68 22 108 3
19 8 45 11 59 12 58 18 86 19 100 1 8 6 23 12 33 9 16 73 17 1178 15 l1168 -3
0 -792 0 -793 484 0 484 0 0 795 0 795 1113 2 c611 2 1136 1 1165 -2 50 -5 71
-19 78 -52 1 -5 2 -9 3 -10 2 -2 4 -14 6 -28 2 -14 10 -59 19 -100 8 -41 17
-88 19 -105 3 -16 8 -37 11 -45 3 -8 8 -31 10 -50 2 -19 6 -42 9 -50 3 -8 10
-42 16 -75 6 -33 13 -71 16 -85 7 -42 46 -244 51 -270 3 -14 7 -34 8 -45 2
-11 6 -31 10 -45 3 -14 8 -36 10 -50 5 -25 22 -114 56 -280 6 -30 13 -71 16
-90 3 -19 8 -38 9 -41 2 -3 7 -28 11 -55 3 -27 10 -59 15 -72 5 -13 7 -28 3
-33 -3 -5 195 -9 495 -9 276 0 501 2 501 4 0 2 -5 28 -10 57 -6 30 -13 69 -16
88 -3 18 -8 43 -10 55 -13 70 -27 144 -29 161 -2 16 -39 202 -50 250 -1 6 -5
28 -9 50 -4 22 -16 83 -26 135 -20 96 -26 128 -35 178 -3 15 -11 52 -17 82 -6
30 -13 62 -14 70 -2 8 -6 31 -10 50 -4 19 -8 44 -10 55 -1 11 -5 31 -8 45 -10
44 -27 126 -32 156 -2 16 -7 43 -11 59 -3 17 -7 37 -9 45 -1 8 -5 26 -8 40 -4
14 -8 41 -11 60 -2 19 -4 35 -5 35 -1 0 -4 14 -6 30 -3 17 -10 45 -15 63 -6
18 -8 36 -5 39 3 4 1 12 -4 19 -6 6 -10 16 -9 20 1 5 -1 27 -6 49 -5 22 -10
49 -11 60 -1 11 -3 20 -4 20 -1 0 -4 11 -6 25 -3 14 -16 81 -30 150 -14 69
-28 141 -30 160 -2 19 -8 49 -13 65 -5 17 -12 46 -15 65 -3 19 -8 45 -10 56
-2 12 -7 38 -10 59 -4 20 -8 40 -10 44 -2 3 -7 24 -11 46 -20 124 -21 128 -35
195 -12 60 -18 88 -24 123 -2 12 -7 33 -10 47 -3 14 -8 36 -10 50 -3 14 -10
50 -16 80 -6 30 -13 71 -16 90 -3 19 -8 38 -10 41 -2 4 -6 26 -9 50 -3 24 -11
67 -19 94 -7 28 -12 60 -11 72 1 13 -1 23 -5 23 -4 0 -7 6 -7 13 0 14 -10 71
-18 107 -4 14 -8 39 -11 55 -2 17 -8 48 -13 70 -5 22 -11 49 -14 60 -2 11 -8
43 -12 70 -5 28 -9 52 -10 55 -2 10 -18 85 -21 100 -1 8 -5 26 -8 40 -2 14 -7
41 -10 60 -3 19 -8 46 -11 60 -3 14 -8 36 -11 50 -2 14 -10 50 -16 80 -6 30
-12 62 -14 70 -1 8 -5 29 -8 45 -4 17 -11 53 -16 80 -6 28 -13 61 -15 75 -3
14 -8 39 -10 55 -3 17 -12 62 -20 100 -8 39 -16 81 -18 95 -3 14 -13 63 -22
110 -9 47 -18 95 -21 108 -2 12 -6 33 -9 47 -3 14 -7 37 -10 53 -3 15 -11 52
-17 82 -6 30 -12 62 -13 70 -1 8 -5 29 -9 45 -8 38 -15 72 -21 110 -5 30 -21
108 -31 155 -4 23 -20 104 -29 155 -4 22 -30 153 -40 200 -3 17 -8 44 -11 60
-3 17 -12 62 -20 100 -12 59 -41 204 -58 295 -4 23 -20 99 -33 160 -2 14 -6
34 -8 45 -2 11 -8 45 -15 75 -6 30 -13 66 -15 80 -2 14 -7 36 -10 50 -3 14 -8
39 -10 55 -3 17 -9 39 -12 50 -3 11 -7 29 -9 40 -6 49 -15 103 -25 138 -5 20
-7 42 -4 47 3 6 2 10 -4 10 -5 0 -9 8 -9 18 0 9 -2 28 -5 42 -6 29 -37 183
-43 220 -3 14 -7 32 -9 40 -3 8 -7 33 -11 55 -3 22 -7 42 -9 45 -2 3 -6 24 -9
46 -4 22 -9 51 -11 64 -12 56 -36 177 -41 200 -3 14 -13 68 -24 120 -24 125
-33 172 -36 190 -1 8 -4 26 -7 40 -15 68 -25 113 -32 155 -3 17 -7 40 -10 53
-12 52 -15 68 -21 106 -3 22 -7 44 -10 47 -2 4 -6 22 -8 40 -3 19 -10 57 -16
84 -10 47 -16 81 -25 130 -2 11 -6 31 -9 45 -3 14 -8 36 -10 50 -3 14 -10 50
-16 80 -6 30 -13 66 -16 80 -2 14 -7 36 -10 50 -3 14 -8 35 -10 48 -9 48 -13
70 -27 142 -9 41 -19 93 -23 115 -4 22 -8 45 -9 50 -2 6 -5 24 -8 40 -15 77
-18 92 -23 115 -8 33 -15 71 -19 95 -2 19 -41 215 -51 260 -4 20 -9 45 -19
103 -3 18 -12 65 -21 105 -8 39 -17 83 -20 97 -2 14 -6 39 -9 55 -3 17 -8 41
-11 55 -5 25 -10 50 -18 93 -3 12 -10 45 -16 72 -6 28 -11 57 -11 65 -1 8 -5
29 -10 45 -5 17 -11 44 -13 60 -8 58 -17 110 -26 145 -5 19 -12 53 -15 75 -4
22 -8 48 -11 57 -3 10 -7 30 -10 45 -2 16 -15 84 -29 153 -30 158 -33 170 -40
200 -3 14 -7 39 -9 55 -10 71 36 65 -511 65 l-494 0 4 -22 c3 -13 7 -34 10
-48 8 -36 13 -63 19 -105 4 -20 8 -40 11 -44 2 -4 6 -27 10 -52 3 -24 9 -62
14 -83 6 -22 8 -43 5 -47 -2 -4 -1 -10 4 -13 4 -2 9 -21 10 -42 2 -20 6 -42 9
-48 4 -6 8 -26 10 -46 2 -19 8 -48 13 -65 11 -36 23 -111 24 -145 l1 -25
-1005 0 c-553 -1 -1013 1 -1023 3 -14 4 -17 11 -11 35 8 40 10 46 18 92 4 22
21 108 37 190 15 83 31 164 34 180 6 39 13 73 21 110 4 17 8 37 9 45 1 8 5 29
8 45 4 17 9 42 11 58 l5 27 -494 0 c-272 0 -496 -3 -498 -7z m1369 -1772 c8
-1 11 -1010 10 -3618 l-1 -3617 -1080 0 -1080 0 0 35 c0 19 2 39 5 44 4 6 7
21 8 36 1 14 9 59 18 100 8 40 17 83 19 94 1 11 6 35 9 53 3 17 8 44 11 60 3
15 7 38 10 52 3 14 13 61 21 105 20 102 22 110 24 110 1 0 3 12 5 27 2 15 11
64 20 108 9 44 18 92 21 105 9 54 12 71 18 95 3 14 8 36 10 50 3 14 7 35 10
46 2 12 7 37 10 55 7 43 13 72 25 129 6 25 13 59 15 75 5 29 8 46 22 110 7 31
13 62 19 105 1 14 4 25 5 25 2 0 7 23 15 75 4 24 8 47 10 50 2 3 6 22 9 42 3
21 10 58 16 83 6 26 8 51 5 56 -4 5 -2 9 2 9 5 0 9 8 10 18 1 9 4 28 7 42 9
47 55 278 60 302 2 13 7 34 10 48 3 14 8 39 10 55 7 44 15 84 26 135 13 57 18
85 25 135 3 22 8 48 11 57 6 19 12 51 19 93 3 17 17 84 30 150 14 66 27 134
30 150 2 17 8 48 12 70 4 22 8 45 9 50 1 6 3 12 4 15 1 3 4 14 5 25 2 11 5 31
8 45 3 14 9 43 13 65 4 22 9 42 9 45 1 3 5 28 10 55 10 57 9 50 18 90 4 17 9
41 11 55 3 14 10 48 15 75 6 28 13 64 16 80 2 17 6 41 10 55 3 14 7 36 10 50
3 14 7 36 10 50 3 14 12 59 20 100 8 41 16 85 19 96 2 12 7 37 10 55 8 50 16
89 27 137 5 23 12 59 15 80 3 20 10 57 16 82 5 25 12 56 14 70 2 14 7 36 11
50 3 14 6 28 5 32 -1 3 7 45 17 92 11 47 17 86 14 86 -3 0 0 6 6 13 6 8 9 16
6 18 -2 3 1 23 7 45 6 21 12 50 14 64 1 14 7 50 13 80 6 30 13 65 16 78 2 13
6 31 9 40 3 9 7 33 10 52 3 19 8 46 11 60 11 55 15 76 19 100 3 14 10 50 16
80 6 30 13 71 16 90 3 19 8 44 11 55 3 11 7 29 9 40 2 11 6 32 9 48 3 15 7 37
9 50 3 12 12 60 21 107 9 47 19 96 21 110 3 14 7 32 9 40 2 8 7 29 10 45 2 17
7 41 10 55 3 14 8 39 10 55 3 17 19 98 35 180 16 83 32 161 34 175 3 14 12 61
21 105 10 44 18 91 20 105 2 14 4 25 5 25 1 0 4 16 6 35 3 19 9 49 14 65 5 17
11 47 14 67 3 21 10 57 15 80 6 24 13 59 16 78 9 46 13 65 15 65 1 0 3 12 5
27 6 48 16 69 35 76 15 6 681 8 726 3z m1112 -2 c31 1 64 2 72 2 23 1 470 0
515 -1 22 -1 43 -4 46 -8 6 -6 47 -204 63 -297 1 -11 6 -31 9 -45 4 -14 9 -40
12 -57 11 -71 17 -99 25 -133 5 -19 12 -51 15 -70 3 -19 8 -48 12 -65 3 -16 8
-37 9 -45 1 -8 7 -40 13 -70 6 -30 13 -66 16 -80 2 -14 7 -38 10 -55 11 -55
34 -170 39 -195 3 -14 10 -50 16 -80 6 -30 13 -68 16 -85 6 -39 12 -70 14 -70
1 0 3 -11 5 -25 3 -30 14 -89 20 -110 2 -8 6 -26 9 -40 20 -103 46 -239 50
-260 8 -35 25 -120 30 -150 5 -29 24 -124 31 -160 3 -14 7 -36 10 -50 5 -27
12 -60 20 -100 2 -14 7 -41 10 -60 4 -19 10 -53 15 -75 5 -22 12 -56 15 -75 3
-19 8 -42 10 -50 4 -14 8 -34 20 -105 3 -16 13 -64 21 -105 9 -41 17 -82 19
-91 2 -9 6 -32 9 -50 8 -45 13 -74 38 -194 11 -55 21 -107 22 -115 1 -8 6 -31
10 -50 8 -39 9 -47 20 -105 4 -22 12 -61 17 -86 13 -57 14 -62 24 -124 11 -60
9 -52 20 -95 5 -19 9 -46 10 -60 2 -14 3 -25 5 -25 1 0 3 -11 5 -25 4 -26 9
-53 26 -128 5 -23 12 -59 15 -80 3 -20 7 -45 10 -54 3 -10 7 -29 10 -43 2 -14
7 -37 10 -52 3 -16 7 -39 9 -53 2 -14 6 -32 8 -40 4 -16 14 -67 21 -110 3 -14
14 -70 25 -125 11 -55 22 -111 24 -125 3 -14 12 -60 21 -102 9 -42 19 -93 22
-114 3 -20 8 -46 11 -58 2 -11 6 -30 8 -41 2 -11 9 -45 15 -75 6 -30 13 -68
16 -85 2 -16 7 -37 9 -45 2 -8 7 -28 9 -45 3 -16 10 -55 16 -85 6 -30 13 -66
16 -80 2 -14 9 -45 14 -70 5 -25 12 -58 15 -75 3 -16 7 -41 10 -55 21 -106 25
-128 29 -153 3 -15 7 -35 10 -45 3 -9 8 -31 10 -47 3 -17 7 -43 11 -60 28
-140 97 -495 100 -515 2 -14 11 -58 19 -97 9 -40 18 -85 20 -100 3 -16 8 -43
11 -62 3 -19 7 -37 9 -40 2 -3 7 -28 10 -55 4 -27 9 -52 11 -55 1 -3 6 -24 10
-46 7 -38 9 -51 20 -107 9 -48 16 -86 31 -158 9 -41 18 -86 20 -100 2 -14 7
-36 11 -50 9 -37 10 -60 4 -61 -15 -3 -2147 -5 -2156 -2 -7 2 -10 1163 -10
3615 l0 3612 25 6 c14 4 29 5 33 2 5 -2 34 -3 65 -3z"/>
</g>
</svg>
